<svg width="73" height="88" viewBox="0 0 73 88" fill="none" xmlns="http://www.w3.org/2000/svg">
<path d="M34.2614 58.99C34.8261 59.0927 35.5191 59.1953 36.3404 59.298C37.1617 59.3493 37.9317 59.375 38.6504 59.375C40.3957 59.375 41.9871 59.1183 43.4244 58.605C44.9131 58.0917 46.1707 57.296 47.1974 56.218C48.2754 55.14 49.0967 53.754 49.6614 52.06C50.2774 50.3147 50.5854 48.2357 50.5854 45.823C50.5854 41.203 49.5074 37.738 47.3514 35.428C45.1954 33.0667 42.3207 31.886 38.7274 31.886C38.0087 31.886 37.2644 31.9117 36.4944 31.963C35.7757 32.0143 35.0314 32.0913 34.2614 32.194V58.99ZM38.5734 70.232C37.7007 70.232 36.6997 70.2063 35.5704 70.155C34.4411 70.1037 33.2604 70.001 32.0284 69.847C30.8477 69.693 29.6414 69.4877 28.4094 69.231C27.2287 69.0257 26.1251 68.7177 25.0984 68.307C22.2751 67.229 20.8634 65.3553 20.8634 62.686V26.727C20.8634 25.649 21.1457 24.8277 21.7104 24.263C22.3264 23.647 23.1477 23.1593 24.1744 22.8C26.3817 22.0813 28.7174 21.6193 31.1814 21.414C33.6454 21.1573 35.8527 21.029 37.8034 21.029C41.8074 21.029 45.4264 21.5167 48.6604 22.492C51.9457 23.4673 54.7434 24.9817 57.0534 27.035C59.4147 29.037 61.2371 31.578 62.5204 34.658C63.8037 37.738 64.4454 41.3827 64.4454 45.592C64.4454 49.6987 63.8294 53.292 62.5974 56.372C61.3654 59.4007 59.5944 61.9673 57.2844 64.072C55.0257 66.1253 52.3051 67.6653 49.1224 68.692C45.9397 69.7187 42.4234 70.232 38.5734 70.232Z" fill="white"/>
<path d="M22.8291 17.8087C18.1464 25.3025 27.1765 33.4963 27.1765 33.4963C27.1765 33.4963 38.4996 38.0206 43.1822 30.5268C47.8649 23.033 44.134 6.35874 44.134 6.35874C44.134 6.35874 27.5118 10.3149 22.8291 17.8087Z" fill="#FFE35A"/>
<path d="M31.4815 17.8087C36.1641 25.3025 27.134 33.4963 27.134 33.4963C27.134 33.4963 15.811 38.0206 11.1283 30.5268C6.44564 23.033 10.1766 6.35874 10.1766 6.35874C10.1766 6.35874 26.7988 10.3149 31.4815 17.8087Z" fill="#FDFF7B"/>
</svg>
