<svg width="30" height="30" viewBox="0 0 30 30" fill="none" xmlns="http://www.w3.org/2000/svg">
<circle cx="15" cy="15" r="14" stroke="#5EB561" stroke-width="2"/>
<path d="M7 14C6.44772 14 6 14.4477 6 15C6 15.5523 6.44772 16 7 16V14ZM23.7071 15.7071C24.0976 15.3166 24.0976 14.6834 23.7071 14.2929L17.3431 7.92893C16.9526 7.53841 16.3195 7.53841 15.9289 7.92893C15.5384 8.31946 15.5384 8.95262 15.9289 9.34315L21.5858 15L15.9289 20.6569C15.5384 21.0474 15.5384 21.6805 15.9289 22.0711C16.3195 22.4616 16.9526 22.4616 17.3431 22.0711L23.7071 15.7071ZM7 16H23V14H7V16Z" fill="#5EB561"/>
</svg>
