<svg width="679" height="193" viewBox="0 0 679 193" fill="none" xmlns="http://www.w3.org/2000/svg">
<g clip-path="url(#clip0_6735_851)">
<path d="M659 145.116C659 208.692 599.006 217 525 217C450.994 217 391 208.692 391 145.116C391 81.539 450.994 30 525 30C599.006 30 659 81.539 659 145.116Z" fill="#B1CDB2"/>
<path d="M651 145.147C651 208.74 599.407 208 525.257 208C451.108 208 392 208.74 392 145.147C392 81.5529 451.108 30 525.257 30C599.407 30 651 81.5529 651 145.147Z" fill="#D7EDD8"/>
<ellipse cx="457" cy="120.928" rx="23" ry="28" transform="rotate(8 457 120.928)" fill="#707070"/>
<ellipse cx="451.329" cy="114.578" rx="9.5" ry="13.5" transform="rotate(15 451.329 114.578)" fill="white"/>
<circle cx="464.931" cy="131.709" r="5" transform="rotate(15 464.931 131.709)" fill="white"/>
<ellipse cx="23" cy="28" rx="23" ry="28" transform="matrix(-0.990268 0.139173 0.139173 0.990268 584.879 90)" fill="#707070"/>
<ellipse cx="9.5" cy="13.5" rx="9.5" ry="13.5" transform="matrix(-0.965926 0.258819 0.258819 0.965926 577.354 99.0791)" fill="white"/>
<circle cx="5" cy="5" r="5" transform="matrix(-0.965926 0.258819 0.258819 0.965926 561.604 125.585)" fill="white"/>
<path d="M486.5 153C486.5 153 509.5 172.5 535.5 153" stroke="#707070" stroke-width="6" stroke-linecap="round"/>
<path d="M510.55 25.1163C500.724 39.6842 518.101 56.5947 518.101 56.5947C518.101 56.5947 540.29 66.372 550.116 51.8041C559.942 37.2362 553.685 3.8397 553.685 3.8397C553.685 3.8397 520.376 10.5484 510.55 25.1163Z" fill="#FFE35A"/>
<path d="M527.745 25.7174C536.531 40.9352 518.016 56.5924 518.016 56.5924C518.016 56.5924 495.199 64.798 486.413 49.5801C477.627 34.3623 486.199 1.48366 486.199 1.48366C486.199 1.48366 518.959 10.4995 527.745 25.7174Z" fill="#FDFF7B"/>
</g>
<defs>
<clipPath id="clip0_6735_851">
<rect width="679" height="193" fill="white"/>
</clipPath>
</defs>
</svg>
