<svg width="1440" height="362" viewBox="0 0 1440 362" fill="none" xmlns="http://www.w3.org/2000/svg">
<g clip-path="url(#clip0_6675_632)">
<path d="M1315.5 50C1315.5 29.5655 1332.07 13 1352.5 13H1403C1423.43 13 1440 29.5655 1440 50V242C1440 253.046 1431.05 262 1420 262H1335.5C1324.45 262 1315.5 253.046 1315.5 242V50Z" fill="#B7DBFF"/>
<rect x="1191" y="137.5" width="124.5" height="249" rx="37" transform="rotate(-90 1191 137.5)" fill="#B7DBFF"/>
<rect x="124.5" y="262" width="124.5" height="249" rx="37" transform="rotate(180 124.5 262)" fill="#FFEB89"/>
<rect x="249" y="137.5" width="124.5" height="249" rx="37" transform="rotate(90 249 137.5)" fill="#FFEB89"/>
<rect y="262" width="1440" height="100" fill="#BDE8BF"/>
<rect x="-10" y="172" width="140" height="180" rx="70" fill="#BDE8BF"/>
<rect x="1331" y="172" width="140" height="180" rx="70" fill="#BDE8BF"/>
<rect x="1214" y="204" width="140" height="180" rx="70" fill="#BDE8BF"/>
<rect x="264.711" y="136.711" width="99.9998" height="200" rx="37" transform="rotate(-45 264.711 136.711)" fill="#FFD0DA"/>
<rect x="264.711" y="278.133" width="100" height="200" rx="37" transform="rotate(-135 264.711 278.133)" fill="#FFD0DA"/>
</g>
<defs>
<clipPath id="clip0_6675_632">
<rect width="1440" height="362" fill="white"/>
</clipPath>
</defs>
</svg>
