<svg width="319" height="106" viewBox="0 0 319 106" fill="none" xmlns="http://www.w3.org/2000/svg">
<g clip-path="url(#clip0_6677_668)">
<path d="M40.2066 90C40.94 90.1333 41.84 90.2667 42.9066 90.4C43.9733 90.4667 44.9733 90.5 45.9066 90.5C48.1733 90.5 50.24 90.1667 52.1066 89.5C54.04 88.8333 55.6733 87.8 57.0066 86.4C58.4066 85 59.4733 83.2 60.2066 81C61.0066 78.7333 61.4066 76.0333 61.4066 72.9C61.4066 66.9 60.0066 62.4 57.2066 59.4C54.4066 56.3333 50.6733 54.8 46.0066 54.8C45.0733 54.8 44.1066 54.8333 43.1066 54.9C42.1733 54.9667 41.2066 55.0667 40.2066 55.2V90ZM45.8066 104.6C44.6733 104.6 43.3733 104.567 41.9066 104.5C40.44 104.433 38.9066 104.3 37.3066 104.1C35.7733 103.9 34.2066 103.633 32.6066 103.3C31.0733 103.033 29.64 102.633 28.3066 102.1C24.64 100.7 22.8066 98.2667 22.8066 94.8V48.1C22.8066 46.7 23.1733 45.6333 23.9066 44.9C24.7066 44.1 25.7733 43.4667 27.1066 43C29.9733 42.0667 33.0066 41.4667 36.2066 41.2C39.4066 40.8667 42.2733 40.7 44.8066 40.7C50.0066 40.7 54.7066 41.3333 58.9066 42.6C63.1733 43.8667 66.8066 45.8333 69.8066 48.5C72.8733 51.1 75.24 54.4 76.9066 58.4C78.5733 62.4 79.4066 67.1333 79.4066 72.6C79.4066 77.9333 78.6066 82.6 77.0066 86.6C75.4066 90.5333 73.1066 93.8667 70.1066 96.6C67.1733 99.2667 63.64 101.267 59.5066 102.6C55.3733 103.933 50.8066 104.6 45.8066 104.6ZM93.9082 92.2C95.0415 92.2 96.2749 92.1 97.6082 91.9C99.0082 91.6333 100.042 91.3 100.708 90.9V82.9L93.5082 83.5C91.6415 83.6333 90.1082 84.0333 88.9082 84.7C87.7082 85.3667 87.1082 86.3667 87.1082 87.7C87.1082 89.0333 87.6082 90.1333 88.6082 91C89.6749 91.8 91.4415 92.2 93.9082 92.2ZM93.1082 52.9C96.7082 52.9 99.9749 53.2667 102.908 54C105.908 54.7333 108.442 55.8667 110.508 57.4C112.642 58.8667 114.275 60.7667 115.408 63.1C116.542 65.3667 117.108 68.0667 117.108 71.2V93.6C117.108 95.3333 116.608 96.7667 115.608 97.9C114.675 98.9667 113.542 99.9 112.208 100.7C107.875 103.3 101.775 104.6 93.9082 104.6C90.3749 104.6 87.1749 104.267 84.3082 103.6C81.5082 102.933 79.0749 101.933 77.0082 100.6C75.0082 99.2667 73.4415 97.5667 72.3082 95.5C71.2415 93.4333 70.7082 91.0333 70.7082 88.3C70.7082 83.7 72.0749 80.1667 74.8082 77.7C77.5415 75.2333 81.7749 73.7 87.5082 73.1L100.608 71.7V71C100.608 69.0667 99.7415 67.7 98.0082 66.9C96.3415 66.0333 93.9082 65.6 90.7082 65.6C88.1749 65.6 85.7082 65.8667 83.3082 66.4C80.9082 66.9333 78.7415 67.6 76.8082 68.4C75.9415 67.8 75.2082 66.9 74.6082 65.7C74.0082 64.4333 73.7082 63.1333 73.7082 61.8C73.7082 60.0667 74.1082 58.7 74.9082 57.7C75.7749 56.6333 77.0749 55.7333 78.8082 55C80.7415 54.2667 83.0082 53.7333 85.6082 53.4C88.2749 53.0667 90.7749 52.9 93.1082 52.9ZM274.408 51.7C274.408 48.8333 275.242 46.5667 276.908 44.9C278.575 43.2333 280.842 42.4 283.708 42.4H316.708C317.175 43.1333 317.575 44.1 317.908 45.3C318.308 46.5 318.508 47.7667 318.508 49.1C318.508 51.6333 317.942 53.4333 316.808 54.5C315.742 55.5667 314.308 56.1 312.508 56.1H291.408V65.4H313.908C314.375 66.1333 314.775 67.1 315.108 68.3C315.508 69.4333 315.708 70.6667 315.708 72C315.708 74.5333 315.175 76.3333 314.108 77.4C313.042 78.4667 311.608 79 309.808 79H291.408V89.5H317.108C317.575 90.2333 317.975 91.2 318.308 92.4C318.708 93.6 318.908 94.8667 318.908 96.2C318.908 98.7333 318.342 100.567 317.208 101.7C316.142 102.767 314.708 103.3 312.908 103.3H283.708C280.842 103.3 278.575 102.467 276.908 100.8C275.242 99.1333 274.408 96.8667 274.408 94V51.7Z" fill="#5EB561"/>
<path d="M140.622 102.6C139.889 102.8 138.756 103 137.222 103.2C135.689 103.4 134.189 103.5 132.722 103.5C129.656 103.5 127.356 103 125.822 102C124.289 100.933 123.522 98.7333 123.522 95.4V81.9C121.856 79.4333 120.056 76.7 118.122 73.7C116.189 70.7 114.289 67.6333 112.422 64.5C110.556 61.3667 108.822 58.3 107.222 55.3C105.622 52.2333 104.322 49.4333 103.322 46.9C104.189 45.7 105.356 44.6 106.822 43.6C108.356 42.6 110.222 42.1 112.422 42.1C115.022 42.1 117.122 42.6333 118.722 43.7C120.389 44.7667 121.956 46.7667 123.422 49.7L131.722 66.4H132.322C133.256 64.3333 134.056 62.4667 134.722 60.8C135.456 59.0667 136.156 57.3667 136.822 55.7C137.489 53.9667 138.189 52.2 138.922 50.4C139.656 48.5333 140.489 46.4 141.422 44C142.622 43.4 143.956 42.9333 145.422 42.6C146.889 42.2667 148.289 42.1 149.622 42.1C151.956 42.1 153.922 42.7333 155.522 44C157.189 45.2 158.022 47.0333 158.022 49.5C158.022 50.3 157.856 51.2667 157.522 52.4C157.189 53.5333 156.422 55.2667 155.222 57.6C154.022 59.8667 152.256 62.9667 149.922 66.9C147.656 70.8333 144.556 75.9667 140.622 82.3V102.6ZM195.752 78.7C195.752 82.8333 195.119 86.5333 193.852 89.8C192.585 93 190.785 95.7 188.452 97.9C186.185 100.1 183.452 101.767 180.252 102.9C177.052 104.033 173.485 104.6 169.552 104.6C165.619 104.6 162.052 104 158.852 102.8C155.652 101.6 152.885 99.9 150.552 97.7C148.285 95.4333 146.519 92.7 145.252 89.5C143.985 86.3 143.352 82.7 143.352 78.7C143.352 74.7667 143.985 71.2 145.252 68C146.519 64.8 148.285 62.1 150.552 59.9C152.885 57.6333 155.652 55.9 158.852 54.7C162.052 53.5 165.619 52.9 169.552 52.9C173.485 52.9 177.052 53.5333 180.252 54.8C183.452 56 186.185 57.7333 188.452 60C190.785 62.2 192.585 64.9 193.852 68.1C195.119 71.3 195.752 74.8333 195.752 78.7ZM160.752 78.7C160.752 82.7667 161.519 85.9 163.052 88.1C164.652 90.2333 166.852 91.3 169.652 91.3C172.452 91.3 174.585 90.2 176.052 88C177.585 85.8 178.352 82.7 178.352 78.7C178.352 74.7 177.585 71.6333 176.052 69.5C174.519 67.3 172.352 66.2 169.552 66.2C166.752 66.2 164.585 67.3 163.052 69.5C161.519 71.6333 160.752 74.7 160.752 78.7ZM239.346 78.7C239.346 82.8333 238.712 86.5333 237.446 89.8C236.179 93 234.379 95.7 232.046 97.9C229.779 100.1 227.046 101.767 223.846 102.9C220.646 104.033 217.079 104.6 213.146 104.6C209.212 104.6 205.646 104 202.446 102.8C199.246 101.6 196.479 99.9 194.146 97.7C191.879 95.4333 190.112 92.7 188.846 89.5C187.579 86.3 186.946 82.7 186.946 78.7C186.946 74.7667 187.579 71.2 188.846 68C190.112 64.8 191.879 62.1 194.146 59.9C196.479 57.6333 199.246 55.9 202.446 54.7C205.646 53.5 209.212 52.9 213.146 52.9C217.079 52.9 220.646 53.5333 223.846 54.8C227.046 56 229.779 57.7333 232.046 60C234.379 62.2 236.179 64.9 237.446 68.1C238.712 71.3 239.346 74.8333 239.346 78.7ZM204.346 78.7C204.346 82.7667 205.112 85.9 206.646 88.1C208.246 90.2333 210.446 91.3 213.246 91.3C216.046 91.3 218.179 90.2 219.646 88C221.179 85.8 221.946 82.7 221.946 78.7C221.946 74.7 221.179 71.6333 219.646 69.5C218.112 67.3 215.946 66.2 213.146 66.2C210.346 66.2 208.179 67.3 206.646 69.5C205.112 71.6333 204.346 74.7 204.346 78.7ZM280.139 94.2C279.806 97.3333 278.873 99.7333 277.339 101.4C275.873 103.067 273.706 103.9 270.839 103.9C268.706 103.9 266.806 103.4 265.139 102.4C263.473 101.333 261.673 99.5667 259.739 97.1L249.839 84.7V102.9C249.106 103.033 248.006 103.2 246.539 103.4C245.139 103.667 243.706 103.8 242.239 103.8C240.773 103.8 239.439 103.7 238.239 103.5C237.106 103.3 236.139 102.9 235.339 102.3C234.539 101.7 233.906 100.9 233.439 99.9C233.039 98.8333 232.839 97.4667 232.839 95.8V37.9C233.573 37.7 234.639 37.5 236.039 37.3C237.506 37.0333 238.973 36.9 240.439 36.9C241.906 36.9 243.206 37 244.339 37.2C245.539 37.4 246.539 37.8 247.339 38.4C248.139 39 248.739 39.8333 249.139 40.9C249.606 41.9 249.839 43.2333 249.839 44.9V71.3L267.039 53.7C270.506 53.7 273.273 54.4667 275.339 56C277.473 57.5333 278.539 59.4667 278.539 61.8C278.539 62.8 278.373 63.7333 278.039 64.6C277.706 65.4 277.173 66.2333 276.439 67.1C275.773 67.9667 274.873 68.9 273.739 69.9C272.673 70.8333 271.406 71.9333 269.939 73.2L264.139 78.2L280.139 94.2Z" fill="#519153"/>
<path d="M24.3818 21.9421C16.509 34.5412 31.691 48.3171 31.691 48.3171C31.691 48.3171 50.7281 55.9236 58.6009 43.3245C66.4737 30.7254 60.201 2.69158 60.201 2.69158C60.201 2.69158 32.2546 9.34293 24.3818 21.9421Z" fill="#FFE35A"/>
<path d="M38.9287 21.9421C46.8015 34.5412 31.6195 48.3171 31.6195 48.3171C31.6195 48.3171 12.5825 55.9236 4.70965 43.3245C-3.16315 30.7254 3.10954 2.69158 3.10954 2.69158C3.10954 2.69158 31.0559 9.34293 38.9287 21.9421Z" fill="#FDFF7B"/>
</g>
<defs>
<clipPath id="clip0_6677_668">
<rect width="319" height="106" fill="white"/>
</clipPath>
</defs>
</svg>
