<svg width="268" height="229" viewBox="0 0 268 229" fill="none" xmlns="http://www.w3.org/2000/svg">
<path d="M268 156.976C268 220.553 208.006 228.86 134 228.86C59.9938 228.86 0 220.553 0 156.976C0 93.3994 59.9938 41.8604 134 41.8604C208.006 41.8604 268 93.3994 268 156.976Z" fill="#B1CDB2"/>
<path d="M260 157.007C260 220.601 208.407 219.86 134.257 219.86C60.108 219.86 1 220.601 1 157.007C1 93.4133 60.108 41.8604 134.257 41.8604C208.407 41.8604 260 93.4133 260 157.007Z" fill="#D7EDD8"/>
<ellipse cx="65.9999" cy="132.789" rx="23" ry="28" transform="rotate(8 65.9999 132.789)" fill="#707070"/>
<ellipse cx="60.3286" cy="126.438" rx="9.5" ry="13.5" transform="rotate(15 60.3286 126.438)" fill="white"/>
<circle cx="73.9301" cy="143.569" r="5" transform="rotate(15 73.9301 143.569)" fill="white"/>
<ellipse cx="23" cy="28" rx="23" ry="28" transform="matrix(-0.990268 0.139173 0.139173 0.990268 193.879 101.86)" fill="#707070"/>
<ellipse cx="9.5" cy="13.5" rx="9.5" ry="13.5" transform="matrix(-0.965926 0.258819 0.258819 0.965926 186.353 110.939)" fill="white"/>
<circle cx="5" cy="5" r="5" transform="matrix(-0.965926 0.258819 0.258819 0.965926 170.605 137.445)" fill="white"/>
<path d="M95.5 164.86C95.5 164.86 118.5 184.36 144.5 164.86" stroke="#707070" stroke-width="6" stroke-linecap="round"/>
<path d="M119.549 36.9766C109.723 51.5445 127.101 68.4551 127.101 68.4551C127.101 68.4551 149.289 78.2323 159.116 63.6644C168.942 49.0965 162.684 15.7001 162.684 15.7001C162.684 15.7001 129.376 22.4088 119.549 36.9766Z" fill="#FFE35A"/>
<path d="M136.745 37.5777C145.531 52.7956 127.016 68.4527 127.016 68.4527C127.016 68.4527 104.199 76.6583 95.4132 61.4405C86.6272 46.2226 95.199 13.344 95.199 13.344C95.199 13.344 127.959 22.3599 136.745 37.5777Z" fill="#FDFF7B"/>
</svg>
