<svg width="105" height="105" viewBox="0 0 105 105" fill="none" xmlns="http://www.w3.org/2000/svg">
<circle cx="52.5" cy="52.5" r="52.5" fill="#FFF9F9"/>
<g filter="url(#filter0_d_6637_2103)">
<path d="M92.7495 62.0361C92.7495 80.9859 74.9248 83.4621 52.937 83.4621C30.9492 83.4621 13.1245 80.9859 13.1245 62.0361C13.1245 43.0864 30.9492 27.7246 52.937 27.7246C74.9248 27.7246 92.7495 43.0864 92.7495 62.0361Z" fill="#ACEBAF"/>
</g>
<path d="M42.3193 60.9004C42.3193 60.9004 52.286 69.8582 63.5527 60.9004" stroke="#707070" stroke-width="3" stroke-linecap="round"/>
<ellipse cx="39.0023" cy="52.2737" rx="3.31771" ry="4.64479" fill="#707070"/>
<ellipse cx="39.0023" cy="52.2737" rx="3.31771" ry="4.64479" fill="#707070"/>
<ellipse cx="39.0023" cy="52.2737" rx="3.31771" ry="4.64479" fill="#707070"/>
<ellipse cx="66.8724" cy="52.2737" rx="3.31771" ry="4.64479" fill="#707070"/>
<ellipse cx="66.8724" cy="52.2737" rx="3.31771" ry="4.64479" fill="#707070"/>
<ellipse cx="66.8724" cy="52.2737" rx="3.31771" ry="4.64479" fill="#707070"/>
<g filter="url(#filter1_d_6637_2103)">
<path d="M50.3047 26.7451C46.6855 32.1108 53.086 38.3394 53.086 38.3394C53.086 38.3394 61.2587 41.9405 64.878 36.5748C68.4972 31.2091 66.1924 18.9084 66.1924 18.9084C66.1924 18.9084 53.9239 21.3793 50.3047 26.7451Z" fill="#FFE35A"/>
<path d="M56.6386 26.9668C59.8747 32.5719 53.0553 38.3388 53.0553 38.3388C53.0553 38.3388 44.6513 41.3611 41.4152 35.756C38.1791 30.1509 41.3363 18.0409 41.3363 18.0409C41.3363 18.0409 53.4025 21.3617 56.6386 26.9668Z" fill="#FDFF7B"/>
</g>
<defs>
<filter id="filter0_d_6637_2103" x="9.12451" y="24.7246" width="87.625" height="63.7373" filterUnits="userSpaceOnUse" color-interpolation-filters="sRGB">
<feFlood flood-opacity="0" result="BackgroundImageFix"/>
<feColorMatrix in="SourceAlpha" type="matrix" values="0 0 0 0 0 0 0 0 0 0 0 0 0 0 0 0 0 0 127 0" result="hardAlpha"/>
<feOffset dy="1"/>
<feGaussianBlur stdDeviation="2"/>
<feComposite in2="hardAlpha" operator="out"/>
<feColorMatrix type="matrix" values="0 0 0 0 0 0 0 0 0 0 0 0 0 0 0 0 0 0 0.25 0"/>
<feBlend mode="normal" in2="BackgroundImageFix" result="effect1_dropShadow_6637_2103"/>
<feBlend mode="normal" in="SourceGraphic" in2="effect1_dropShadow_6637_2103" result="shape"/>
</filter>
<filter id="filter1_d_6637_2103" x="35.9561" y="14.041" width="34.9595" height="29.4814" filterUnits="userSpaceOnUse" color-interpolation-filters="sRGB">
<feFlood flood-opacity="0" result="BackgroundImageFix"/>
<feColorMatrix in="SourceAlpha" type="matrix" values="0 0 0 0 0 0 0 0 0 0 0 0 0 0 0 0 0 0 127 0" result="hardAlpha"/>
<feOffset/>
<feGaussianBlur stdDeviation="2"/>
<feComposite in2="hardAlpha" operator="out"/>
<feColorMatrix type="matrix" values="0 0 0 0 0 0 0 0 0 0 0 0 0 0 0 0 0 0 0.25 0"/>
<feBlend mode="normal" in2="BackgroundImageFix" result="effect1_dropShadow_6637_2103"/>
<feBlend mode="normal" in="SourceGraphic" in2="effect1_dropShadow_6637_2103" result="shape"/>
</filter>
</defs>
</svg>
