<svg width="300" height="492" viewBox="0 0 300 492" fill="none" xmlns="http://www.w3.org/2000/svg">
<g clip-path="url(#clip0_7163_636)">
<path d="M-49.0001 410.663C-49.0001 502.058 37.2444 514 143.632 514C250.02 514 336.265 502.058 336.265 410.663C336.265 319.268 250.02 245.178 143.632 245.178C37.2444 245.178 -49.0001 319.268 -49.0001 410.663Z" fill="#B1CDB2"/>
<path d="M-37.4996 410.707C-37.4996 502.127 36.6688 501.062 143.263 501.062C249.856 501.062 334.827 502.127 334.827 410.707C334.827 319.288 249.856 245.178 143.263 245.178C36.6688 245.178 -37.4996 319.288 -37.4996 410.707Z" fill="#D7EDD8"/>
<ellipse cx="33.0638" cy="40.2515" rx="33.0638" ry="40.2515" transform="matrix(-0.990268 0.139173 0.139173 0.990268 268.526 331.431)" fill="#707070"/>
<ellipse cx="13.6568" cy="19.407" rx="13.6568" ry="19.407" transform="matrix(-0.965926 0.258819 0.258819 0.965926 257.707 344.481)" fill="white"/>
<circle cx="7.18777" cy="7.18777" r="7.18777" transform="matrix(-0.965926 0.258819 0.258819 0.965926 235.068 382.587)" fill="white"/>
<ellipse cx="84.6928" cy="375.892" rx="33.0638" ry="40.2515" transform="rotate(8 84.6928 375.892)" fill="#707070"/>
<ellipse cx="76.5401" cy="366.762" rx="13.6568" ry="19.407" transform="rotate(15 76.5401 366.762)" fill="white"/>
<circle cx="96.0928" cy="391.39" r="7.18778" transform="rotate(15 96.0928 391.39)" fill="white"/>
<path d="M198.979 421.996C198.979 421.996 165.915 450.028 128.538 421.996" stroke="#707070" stroke-width="6" stroke-linecap="round"/>
<path d="M164.405 238.157C178.531 259.099 153.55 283.409 153.55 283.409C153.55 283.409 121.652 297.464 107.527 276.522C93.4009 255.58 102.396 207.57 102.396 207.57C102.396 207.57 150.28 217.214 164.405 238.157Z" fill="#FFE35A"/>
<path d="M139.687 239.02C127.057 260.897 153.673 283.405 153.673 283.405C153.673 283.405 186.473 295.201 199.104 273.324C211.734 251.448 199.411 204.183 199.411 204.183C199.411 204.183 152.318 217.144 139.687 239.02Z" fill="#FDFF7B"/>
</g>
<defs>
<clipPath id="clip0_7163_636">
<rect width="300" height="492" fill="white"/>
</clipPath>
</defs>
</svg>
